HIERARCHY
ROOT joint_Root
{
	OFFSET 0.0 0.0 0.0
	CHANNELS 6 Xposition Yposition Zposition Zrotation Xrotation Yrotation 
	JOINT Hips
	{
		OFFSET 4.5925 91.4895 -427.239
		CHANNELS 6 Xposition Yposition Zposition Zrotation Xrotation Yrotation 
		JOINT Spine
		{
			OFFSET 15.7357 0.0 0.0
			CHANNELS 6 Xposition Yposition Zposition Zrotation Xrotation Yrotation 
			JOINT Chest
			{
				OFFSET 8.98455 -0.406207 0.0
				CHANNELS 6 Xposition Yposition Zposition Zrotation Xrotation Yrotation 
				JOINT Neck
				{
					OFFSET 16.3773 0.0 0.0
					CHANNELS 6 Xposition Yposition Zposition Zrotation Xrotation Yrotation 
					JOINT Head
					{
						OFFSET 6.45672 0.0 0.0
						CHANNELS 6 Xposition Yposition Zposition Zrotation Xrotation Yrotation 
						End Site
						{
							OFFSET 0.0 0.0 0.0
						}
					}
				}
				JOINT Shoulder_L
				{
					OFFSET 12.9942 -0.242716 4.98039
					CHANNELS 6 Xposition Yposition Zposition Zrotation Xrotation Yrotation 
					JOINT UpperArm_L
					{
						OFFSET 5.34809 0.0 0.0
						CHANNELS 6 Xposition Yposition Zposition Zrotation Xrotation Yrotation 
						JOINT LowerArm_L
						{
							OFFSET 24.3286 1.87007e-05 0.0
							CHANNELS 6 Xposition Yposition Zposition Zrotation Xrotation Yrotation 
							JOINT Hand_L
							{
								OFFSET 22.2916 0.0 0.0
								CHANNELS 6 Xposition Yposition Zposition Zrotation Xrotation Yrotation 
								End Site
								{
									OFFSET 0.0 0.0 0.0
								}
							}
						}
					}
				}
				JOINT Shoulder_R
				{
					OFFSET 12.9945 -0.242716 -4.98039
					CHANNELS 6 Xposition Yposition Zposition Zrotation Xrotation Yrotation 
					JOINT UpperArm_R
					{
						OFFSET -5.34813 0.0 0.0
						CHANNELS 6 Xposition Yposition Zposition Zrotation Xrotation Yrotation 
						JOINT LowerArm_R
						{
							OFFSET -24.3289 0.000322201 0.0
							CHANNELS 6 Xposition Yposition Zposition Zrotation Xrotation Yrotation 
							JOINT Hand_R
							{
								OFFSET -22.2915 -0.000108084 0.0
								CHANNELS 6 Xposition Yposition Zposition Zrotation Xrotation Yrotation 
								End Site
								{
									OFFSET 0.0 0.0 0.0
								}
							}
						}
					}
				}
			}
		}
		JOINT UpperLeg_L
		{
			OFFSET -2.19248 -6.46944 0.0
			CHANNELS 6 Xposition Yposition Zposition Zrotation Xrotation Yrotation 
			JOINT LowerLeg_L
			{
				OFFSET 39.0811 0.0 -1.23785e-05
				CHANNELS 6 Xposition Yposition Zposition Zrotation Xrotation Yrotation 
				JOINT Foot_L
				{
					OFFSET 40.9854 0.0 -1.26872e-05
					CHANNELS 6 Xposition Yposition Zposition Zrotation Xrotation Yrotation 
					JOINT Toes_L
					{
						OFFSET 11.7543 0.0 0.0
						CHANNELS 6 Xposition Yposition Zposition Zrotation Xrotation Yrotation 
						End Site
						{
							OFFSET 0.0 0.0 0.0
						}
					}
				}
			}
		}
		JOINT UpperLeg_R
		{
			OFFSET -2.19251 6.46944 0.0
			CHANNELS 6 Xposition Yposition Zposition Zrotation Xrotation Yrotation 
			JOINT LowerLeg_R
			{
				OFFSET -39.0811 -0.00228153 -0.0401928
				CHANNELS 6 Xposition Yposition Zposition Zrotation Xrotation Yrotation 
				JOINT Foot_R
				{
					OFFSET -40.9854 0.0 0.0
					CHANNELS 6 Xposition Yposition Zposition Zrotation Xrotation Yrotation 
					JOINT Toes_R
					{
						OFFSET -11.7543 0.0 0.0
						CHANNELS 6 Xposition Yposition Zposition Zrotation Xrotation Yrotation 
						End Site
						{
							OFFSET 0.0 0.0 0.0
						}
					}
				}
			}
		}
	}
}
MOTION
Frames:	4
Frame Time:	0.0333333
0.000000 0.000000 0.000000 0.000000 0.000000 -0.000000 -3.465210 90.807300 1.472210 88.979200 1.840550 9.790220 15.735700 0.000005 -0.000001 80.075400 88.009700 -80.488900 8.984550 -0.406207 -0.000000 -3.847330 -0.643745 -0.848987 16.377300 -0.000001 -0.000001 1.231880 -3.491260 0.465800 6.456720 -0.000001 -0.000000 4.629610 -4.749500 5.713370 12.994200 -0.242716 4.980390 -83.950100 -12.169200 -63.307900 5.348090 -0.000007 -0.000001 -49.695000 -53.522400 -102.335000 24.328600 0.000019 0.000005 15.860500 11.851800 -54.136900 22.291600 -0.000001 0.000005 26.100300 5.315350 -0.362335 12.994500 -0.242716 -4.980390 93.226400 -9.009050 -70.201300 -5.348130 -0.000001 -0.000004 -42.954400 -56.807300 -94.820500 -24.328900 0.000322 -0.000009 -4.241600 -3.318630 -52.009400 -22.291500 -0.000108 -0.000004 35.756000 5.591540 -10.836200 -2.192480 -6.469440 -0.000000 -172.180000 -9.931330 0.968102 39.081100 -0.000007 -0.000012 -0.194070 0.341331 29.621500 40.985400 -0.000006 -0.000013 -1.006910 8.743820 -70.517300 11.754300 -0.000000 0.000003 -0.000142 -0.001383 -16.630200 -2.192510 6.469440 -0.000001 176.182000 21.352800 -176.205000 -39.081100 -0.002282 -0.040193 -0.063146 0.122808 28.417700 -40.985400 0.000008 0.000006 7.160810 11.022500 -72.992800 -11.754300 -0.000006 -0.000006 -0.001148 -0.017494 -17.284600
0.000000 0.000000 0.000000 0.000000 0.000000 -0.000000 -3.486610 90.910200 1.544740 88.977800 1.655560 9.584390 15.735700 0.000005 -0.000001 79.268800 88.190900 -79.676800 8.984550 -0.406207 -0.000000 -4.213380 -0.630584 -0.839469 16.377300 -0.000001 -0.000001 1.819420 -3.606450 0.665709 6.456720 -0.000001 -0.000000 4.652550 -4.910140 5.768890 12.994200 -0.242716 4.980390 -83.772800 -12.310300 -62.897300 5.348090 -0.000007 -0.000001 -51.761900 -53.056700 -105.879000 24.328600 0.000019 0.000005 12.952600 11.595300 -48.847700 22.291600 -0.000001 0.000005 23.931200 5.296970 0.161031 12.994500 -0.242716 -4.980390 93.358300 -9.015370 -69.470100 -5.348130 -0.000001 -0.000004 -38.877500 -56.252700 -93.355600 -24.328900 0.000322 -0.000009 -0.604757 -0.580426 -46.138300 -22.291500 -0.000108 -0.000004 35.301600 5.597210 -11.163600 -2.192480 -6.469440 -0.000000 -172.172000 -10.061800 1.158110 39.081100 -0.000007 -0.000012 -0.192743 0.347863 28.990200 40.985400 -0.000006 -0.000013 -1.094080 8.668190 -70.255300 11.754300 -0.000000 0.000003 -0.000124 -0.001232 -16.624600 -2.192510 6.469440 -0.000001 176.088000 21.854800 -176.018000 -39.081100 -0.002282 -0.040193 -0.052625 0.106089 27.798900 -40.985400 0.000008 0.000006 7.353600 11.688700 -72.810400 -11.754300 -0.000006 -0.000006 -0.001251 -0.018905 -17.341900
0.000000 0.000000 0.000000 0.000000 0.000000 -0.000000 -3.553720 90.966500 1.523050 89.011600 1.207640 9.552950 15.735700 0.000005 -0.000001 79.479600 88.139900 -79.890300 8.984550 -0.406207 -0.000000 -4.110740 -0.636220 -0.844581 16.377300 -0.000001 -0.000001 1.694270 -3.641860 0.810175 6.456720 -0.000001 -0.000000 4.636820 -4.964810 5.820890 12.994200 -0.242716 4.980390 -83.992200 -11.696200 -62.563900 5.348090 -0.000007 -0.000001 -52.593200 -53.291700 -103.433000 24.328600 0.000019 0.000005 10.427800 11.609500 -42.442900 22.291600 -0.000001 0.000005 20.363300 5.246200 1.535830 12.994500 -0.242716 -4.980390 93.235400 -8.636370 -69.371300 -5.348130 -0.000001 -0.000004 -38.588200 -54.730600 -90.059900 -24.328900 0.000322 -0.000009 -3.632910 -4.540350 -38.740000 -22.291500 -0.000108 -0.000004 29.607800 5.554010 -8.874500 -2.192480 -6.469440 -0.000000 -172.065000 -10.565600 1.401250 39.081100 -0.000007 -0.000012 -0.189200 0.346883 28.609600 40.985400 -0.000006 -0.000013 -1.153520 8.727170 -70.070600 11.754300 -0.000000 0.000003 -0.000127 -0.001265 -16.625800 -2.192510 6.469440 -0.000001 176.175000 21.545800 -175.987000 -39.081100 -0.002282 -0.040193 -0.053433 0.108872 27.526900 -40.985400 0.000008 0.000006 7.408250 11.833500 -72.655100 -11.754300 -0.000006 -0.000006 -0.001293 -0.019486 -17.365500
0.000000 0.000000 0.000000 0.000000 0.000000 -0.000000 -3.602730 90.966700 1.418200 88.992900 0.856740 9.611090 15.735700 0.000005 -0.000001 80.547400 87.925700 -80.919400 8.984550 -0.406207 -0.000000 -3.675940 -0.643801 -0.764878 16.377300 -0.000001 -0.000001 1.138910 -3.719320 0.781424 6.456720 -0.000001 -0.000000 4.582410 -5.087070 5.851570 12.994200 -0.242716 4.980390 -84.532400 -10.799500 -62.940000 5.348090 -0.000007 -0.000001 -49.415700 -54.896300 -93.404300 24.328600 0.000019 0.000005 9.086510 12.568900 -36.313300 22.291600 -0.000001 0.000005 18.295800 5.161680 3.664950 12.994500 -0.242716 -4.980390 92.819000 -7.710780 -69.847100 -5.348130 -0.000001 -0.000004 -36.898600 -53.811900 -82.143900 -24.328900 0.000322 -0.000009 -6.161410 -10.235700 -31.277800 -22.291500 -0.000108 -0.000004 25.557300 5.476710 -5.619310 -2.192480 -6.469440 -0.000000 -172.043000 -10.552300 1.435140 39.081100 -0.000007 -0.000012 -0.186299 0.341201 28.635200 40.985400 -0.000006 -0.000013 -1.270210 8.388380 -70.044000 11.754300 -0.000000 0.000003 -0.000122 -0.001222 -16.624200 -2.192510 6.469440 -0.000001 176.311000 21.200400 -176.102000 -39.081100 -0.002282 -0.040193 -0.055815 0.113077 27.602700 -40.985400 0.000008 0.000006 7.417450 11.840000 -72.591600 -11.754300 -0.000006 -0.000006 -0.001338 -0.020104 -17.390600
